<?xml version="1.0" ?><!DOCTYPE svg  PUBLIC '-//W3C//DTD SVG 1.1//EN'  'http://www.w3.org/Graphics/SVG/1.1/DTD/svg11.dtd'><svg enable-background="new 0 0 50 50" height="50px" version="1.1" viewBox="0 0 50 50" width="50px" xml:space="preserve" xmlns="http://www.w3.org/2000/svg" xmlns:xlink="http://www.w3.org/1999/xlink"><g id="Layer_13"><path clip-rule="evenodd" d="M30.328,10.765c-0.803,1.536-2.144,2.587-4.211,3.149   c-0.541-2.066-0.301-3.753,0.629-5.219c0.933-1.469,2.55-2.799,4.761-4.114C31.474,7.159,31.133,9.226,30.328,10.765    M21.754,13.837C13.87,10.165,4.725,15.391,4.725,24.363c0.024,5.968,2.898,15.336,6.224,20.274C13.093,47.818,15.796,50,19.073,50   c1.879,0,4.196-1.001,5.93-1.577c1.768,0.587,4.038,1.577,5.949,1.569c3.262-0.015,5.967-2.203,8.115-5.386   c3.368-4.992,6.191-14.185,6.208-20.245c0-6.48-5.17-11.736-11.673-11.736c-0.389,0-0.778,0.019-1.166,0.058   C34.693,9.054,34.337,4.131,34.15,0c-3.454,1.792-7.583,3.806-9.733,7.151c-0.622-1.879-1.393-3.705-2.323-5.46l-3.182,1.516   c1.858,3.427,3.613,7.224,4.347,11.456C22.778,14.355,22.274,14.08,21.754,13.837z M22.187,20.338   c-2.57-3.125-7.564-3.64-10.473-0.726c-3.718,3.728-1.123,11.754,0.489,16.182l2.312-0.839c-1.188-3.263-3.743-10.916-1.057-13.608   c1.869-1.874,5.195-1.439,6.83,0.553L22.187,20.338z M7.521,24.362c0-6.918,7.003-10.811,13.052-7.991   c2.138,0.994,3.019,2.132,4.429,3.85c2.357-2.872,4.598-4.802,8.599-4.802c4.951,0,8.888,4.006,8.888,8.939   c0,5.45-2.699,14.181-5.739,18.686c-1.661,2.461-3.625,4.15-5.81,4.162c-1.636,0.005-4.273-1.167-5.939-1.718   c-1.674,0.555-4.277,1.715-5.929,1.715c-2.198,0-4.157-1.68-5.807-4.129C10.237,38.578,7.545,29.797,7.521,24.362z" fill-rule="evenodd"/></g><g id="Layer_12"/><g id="Layer_11"/><g id="Layer_10"/><g id="Layer_9"/><g id="Layer_8"/><g id="Layer_7"/><g id="Layer_6"/><g id="Layer_5"/><g id="Layer_4"/><g id="Layer_3"/><g id="Layer_2"/></svg>